PathFileType	4	(X/Y/Z)	c:/Users/goper/Files/vsCode/490R/osim_files/C08/C08_Fast_03.trc
DataRate	CameraRate	NumFrames	NumMarkers	Units                	OrigDataRate	OrigDataStartFrame	OrigNumFrames
250.00	250.00	9	36	mm	250.0	1451	2321
                Frame#	Time	LPSIS			LASIS			LTH1			LTH2			LTH3			LTH4			LLFE			LMFE			LSH1			LSH2			LSH3			LSH4			LLMAL			LMMAL			LCAL			LMTP5			LTOE			LMTP1			RPSIS			RASIS			RTH1			RTH2			RTH3			RTH4			RLFE			RMFE			RSH1			RSH2			RSH3			RSH4			RLMAL			RMMAL			RCAL			RMTP1			RTOE			RMTP5		
		X1	Y1	Z1	X2	Y2	Z2	X3	Y3	Z3	X4	Y4	Z4	X5	Y5	Z5	X6	Y6	Z6	X7	Y7	Z7	X8	Y8	Z8	X9	Y9	Z9	X10	Y10	Z10	X11	Y11	Z11	X12	Y12	Z12	X13	Y13	Z13	X14	Y14	Z14	X15	Y15	Z15	X16	Y16	Z16	X17	Y17	Z17	X18	Y18	Z18	X19	Y19	Z19	X20	Y20	Z20	X21	Y21	Z21	X22	Y22	Z22	X23	Y23	Z23	X24	Y24	Z24	X25	Y25	Z25	X26	Y26	Z26	X27	Y27	Z27	X28	Y28	Z28	X29	Y29	Z29	X30	Y30	Z30	X31	Y31	Z31	X32	Y32	Z32	X33	Y33	Z33	X34	Y34	Z34	X35	Y35	Z35	X36	Y36	Z36

1451	5.80000	-1080.74097	1049.02063	202.22133	-1279.53223	1006.29102	299.37961	-1235.14771	727.58960	373.32458	-1257.08594	652.11932	364.12366	-1275.06897	580.12714	363.96451	-1333.48901	676.50641	364.28705	-1282.26794	533.83954	358.62726	-1326.57153	523.24780	234.74176	-1189.85266	481.71729	359.17999	-1159.46423	444.03311	355.70151	-1234.05603	440.08859	367.67947	-1199.77869	409.57278	362.39203	-979.63470	245.35397	295.02933	-1013.45551	229.28368	212.86797	-928.35168	273.26489	230.04590	-1007.93964	121.12229	334.32300	-1071.82129	92.84995	284.18372	-1040.62720	96.98522	228.99135	-1083.99939	1049.71826	142.39366	-1283.74353	1017.49615	59.60815	-1236.39929	750.19507	0.31158	-1244.14465	673.14661	20.40468	-1250.75281	594.11322	33.26175	-1318.33337	684.31750	44.80453	-1261.93542	524.22345	49.35025	-1259.08105	520.62738	173.39493	-1207.18799	439.90244	32.79328	-1212.48303	395.30539	29.35746	-1268.36340	439.03555	43.47263	-1265.59534	394.59760	39.02770	-1192.02966	98.84323	95.42291	-1225.49414	104.21017	182.87834	-1136.98096	76.90728	168.04962	-1352.22510	45.14278	165.59686	-1367.51001	64.25459	111.02070	-1313.26501	44.97493	54.14594
1452	5.80400	-1086.06628	1050.02148	202.18738	-1285.19165	1007.69214	298.52805	-1243.37817	729.02087	373.18280	-1265.69446	653.84064	363.93689	-1284.46326	581.88971	363.83469	-1342.11914	678.86572	363.57489	-1292.26758	535.56342	358.22235	-1334.90564	525.04065	234.85085	-1200.14734	481.96863	358.50955	-1170.29883	444.00809	355.17365	-1244.94446	441.03955	367.04269	-1211.07666	410.06937	361.79312	-993.59705	242.33463	294.37018	-1027.11768	227.12979	212.37056	-941.40912	269.27194	229.63779	-1024.13086	119.04482	334.23502	-1088.59924	92.13030	284.18069	-1057.40808	95.40184	228.96277	-1089.32043	1050.52380	142.42308	-1288.64966	1018.19641	58.82825	-1239.55847	750.53845	0.06627	-1246.54968	673.40881	20.21919	-1252.31653	594.42145	33.14980	-1320.93921	683.87152	44.27843	-1262.99280	524.35693	49.24401	-1260.56763	520.66882	174.73204	-1207.75330	440.23834	32.83810	-1212.88733	395.62729	29.40970	-1268.96777	439.18356	43.37703	-1266.09204	394.79147	38.88543	-1192.18494	99.01189	95.43539	-1225.70337	104.35446	182.91701	-1136.83069	77.18215	167.98447	-1352.22473	45.08949	165.57193	-1367.56750	64.16737	111.01501	-1313.29028	44.95146	54.12928
1453	5.80800	-1091.48462	1050.92554	202.16461	-1290.60901	1009.04272	297.60114	-1251.57373	730.46246	373.06100	-1274.17920	655.58759	363.83145	-1295.06482	583.61969	363.12213	-1351.39380	681.70575	364.02591	-1302.23413	537.25800	357.79303	-1344.79041	527.50348	233.79680	-1210.34949	482.13312	357.93857	-1181.12976	443.81799	354.67969	-1255.82092	441.99426	366.40656	-1222.42798	410.50540	361.14285	-1007.47760	239.35158	294.00769	-1041.23535	224.76886	211.98532	-954.65259	265.09610	229.29166	-1040.52075	116.91985	334.20355	-1105.56519	91.31934	284.14960	-1074.68079	94.13249	228.81125	-1094.62830	1051.20435	142.47069	-1293.49829	1018.84052	58.10960	-1242.67395	750.89307	-0.11711	-1249.11279	673.68103	19.98044	-1253.86511	594.66602	33.09032	-1323.54041	683.56281	44.04912	-1264.05896	524.51904	49.16180	-1261.79126	520.84253	174.83202	-1208.32581	440.55518	32.89676	-1213.36597	395.94565	29.46151	-1269.54895	439.39355	43.20077	-1266.52539	394.95728	38.79300	-1192.33936	99.13412	95.50694	-1225.87964	104.48866	182.97441	-1136.95251	77.32853	168.03214	-1352.27490	45.02397	165.61224	-1367.62622	64.06452	111.05100	-1313.32373	44.90357	54.10781
1454	5.81200	-1096.82227	1051.76807	202.15259	-1296.24121	1010.43854	296.68427	-1259.68628	731.90167	372.98914	-1283.33044	657.17743	363.22339	-1304.61169	585.43158	362.93945	-1359.51672	683.44189	362.49881	-1312.12891	538.94989	357.30530	-1354.10327	529.85590	233.08690	-1220.57227	482.34500	357.35370	-1191.95483	443.61551	354.05042	-1266.74573	442.91919	365.75458	-1233.82178	410.86649	360.52881	-1021.48700	236.23090	293.65094	-1055.61719	222.07484	211.79182	-967.98035	260.73911	228.98763	-1057.06372	114.68233	334.21399	-1122.67297	90.44840	284.16779	-1091.60474	92.38663	228.86850	-1100.06628	1051.75269	142.61220	-1298.26404	1019.39880	57.37794	-1245.80078	751.34766	-0.28164	-1251.52515	673.92456	19.76968	-1255.49219	594.95502	32.98045	-1326.04077	683.21472	43.94367	-1265.10205	524.65552	49.09365	-1262.36768	521.27734	173.42227	-1208.90479	440.86148	32.96895	-1213.84314	396.24820	29.51112	-1270.16248	439.56134	43.06279	-1266.93420	395.11270	38.72193	-1192.53882	99.29819	95.53743	-1226.01172	104.60336	183.00685	-1137.05579	77.48645	168.09137	-1352.50684	44.93183	166.15343	-1367.68286	63.95515	111.07281	-1313.34546	44.88564	54.08152
1455	5.81600	-1102.13074	1052.60938	202.19583	-1301.76196	1011.73639	295.74689	-1267.74109	733.31757	372.95883	-1291.88855	658.90881	363.07385	-1314.05103	587.23718	362.72794	-1367.69458	685.61694	361.07327	-1321.95361	540.68610	356.81348	-1363.34424	532.18744	232.36050	-1230.80078	482.48813	356.73386	-1202.74646	443.34906	353.50690	-1277.50513	443.78485	365.03180	-1245.16895	411.18271	359.89529	-1035.63220	233.00772	293.33115	-1069.91772	219.49132	211.49644	-981.66766	256.36902	228.53134	-1073.71533	112.38269	334.21875	-1139.80090	89.48820	284.18878	-1109.01538	90.65080	229.09441	-1104.85425	1053.04260	142.27197	-1303.05530	1019.89435	56.69159	-1249.11096	751.56531	-0.58365	-1253.99121	674.18994	19.54596	-1257.10193	595.22058	32.85058	-1328.53674	682.85248	43.84710	-1266.17114	524.82965	48.97432	-1263.84351	521.14587	174.83006	-1209.50891	441.20547	33.03227	-1214.29199	396.56332	29.55549	-1270.75769	439.72021	42.91385	-1267.45337	395.29504	38.62218	-1192.75244	99.42986	95.61327	-1226.22681	104.75748	183.04449	-1137.14246	77.65496	168.14977	-1352.28101	44.75152	165.82993	-1367.71643	63.87048	111.06160	-1313.36121	44.85813	54.05646
1456	5.82000	-1107.53052	1053.35144	202.23279	-1307.36548	1013.03156	294.76514	-1275.71606	734.71246	372.95593	-1300.49036	660.67889	362.78845	-1323.43933	589.04584	362.49841	-1376.06592	687.85699	360.11453	-1331.72473	542.42194	356.29160	-1372.44641	534.46942	231.56436	-1240.74536	482.26102	355.37744	-1213.50000	442.96783	352.98163	-1288.35315	444.63260	364.29013	-1256.48633	411.55942	359.24503	-1049.90918	229.69882	293.06729	-1084.24878	216.77292	211.21097	-995.07977	251.75858	228.59488	-1090.55554	110.05628	334.24341	-1157.08582	88.52179	284.21918	-1126.37793	88.81898	229.15570	-1110.05505	1054.23511	142.22525	-1307.82092	1020.34912	56.02691	-1252.70142	751.78516	-0.63990	-1256.43774	674.41956	19.34074	-1258.70642	595.50830	32.67300	-1331.08484	682.52148	43.82848	-1267.26501	524.95020	48.92720	-1265.09888	521.35071	174.75121	-1210.14600	441.60083	33.12205	-1214.75452	396.92001	29.60693	-1271.37646	439.89072	42.83211	-1267.99146	395.51273	38.45615	-1192.93005	99.59390	95.67475	-1226.40051	104.89221	183.06432	-1137.23047	77.86316	168.21034	-1352.34802	44.73495	165.77136	-1367.78662	63.80124	111.02465	-1313.39124	44.84042	54.02806
1457	5.82400	-1112.83765	1054.04285	202.27084	-1313.00000	1014.31366	293.81033	-1283.53748	736.09485	372.92923	-1309.00830	662.36316	362.59622	-1332.71606	590.81348	362.24362	-1384.46851	690.15668	359.20465	-1341.40552	544.18109	355.76553	-1381.38660	536.72369	230.78128	-1250.67957	482.22614	354.60672	-1224.18896	442.46259	352.35678	-1299.05725	445.49448	363.57425	-1267.83826	411.68607	358.99237	-1064.23425	226.35463	292.81241	-1098.79846	213.91551	210.98984	-1008.88666	246.98296	228.39331	-1107.42236	107.71194	334.28940	-1174.40234	87.54534	284.27725	-1143.66516	86.91298	229.21651	-1115.31873	1054.73755	142.29784	-1312.58643	1020.75635	55.43423	-1255.35767	752.16895	-0.94518	-1258.93738	674.61310	19.17427	-1260.45288	595.79980	32.54070	-1333.56030	682.17645	43.78022	-1268.34521	525.10834	48.81590	-1266.00122	521.93848	173.29971	-1210.73206	441.94699	33.16752	-1215.27185	397.28107	29.61851	-1272.02466	440.10864	42.70686	-1268.50476	395.71896	38.35381	-1193.10034	99.81170	95.74438	-1226.59973	105.09266	183.08427	-1137.37183	78.06027	168.30431	-1352.43066	44.76402	165.71024	-1367.86182	63.76221	110.99106	-1313.40625	44.82498	53.99323
1458	5.82800	-1118.13611	1054.73120	202.28848	-1318.63818	1015.56287	292.79996	-1291.35449	737.38861	372.98309	-1317.53967	663.94116	362.51978	-1341.94897	592.64404	361.90851	-1392.72327	692.37292	358.25052	-1350.63733	546.19122	355.58456	-1390.27222	538.71576	230.00461	-1261.02612	482.30609	354.74011	-1234.94702	441.91257	351.75446	-1309.77039	446.29306	362.78171	-1279.09338	411.96368	358.30798	-1079.07227	223.43631	292.60062	-1113.73279	210.94376	210.93994	-1022.80176	242.12018	228.24364	-1124.61169	105.22935	334.35352	-1190.36023	85.82177	284.45731	-1161.13586	85.11671	229.27974	-1120.58704	1055.24219	142.37634	-1317.40979	1021.09100	54.83160	-1258.56006	752.44275	-1.09157	-1261.47461	674.80725	18.96184	-1262.17896	596.00763	32.48288	-1335.75623	681.90564	43.92649	-1269.46960	525.24939	48.74125	-1267.73230	521.83740	174.56772	-1211.40881	442.31104	33.23431	-1215.83289	397.64749	29.65512	-1272.73145	440.31094	42.59365	-1269.00806	395.93741	38.28501	-1193.30139	100.01071	95.82661	-1226.84888	105.32658	183.11044	-1137.49304	78.27715	168.35725	-1352.49365	44.82453	165.61989	-1367.92175	63.73437	110.91631	-1313.44226	44.83049	53.95982
1459	5.83200	-1123.42395	1055.31067	202.36017	-1324.25708	1016.68689	291.80771	-1300.26709	738.69708	372.41003	-1326.15247	665.44946	362.44037	-1351.12842	594.34180	361.52625	-1400.91797	694.57837	357.25479	-1360.63489	547.87311	354.74707	-1398.76526	540.80316	229.01155	-1270.58948	481.95456	352.96878	-1245.38538	438.92731	353.11646	-1320.37878	447.04022	361.94269	-1290.29565	412.27057	358.01654	-1093.49011	219.35474	292.52029	-1128.49316	207.90495	210.77466	-1036.92505	237.08221	228.13715	-1141.87903	102.77544	334.46985	-1208.90698	85.25460	284.18893	-1178.82605	83.16117	229.50699	-1125.75793	1055.70044	142.45329	-1322.12158	1021.35730	54.27959	-1261.70227	752.71283	-1.26017	-1263.85217	675.02277	18.74352	-1263.98328	596.22034	32.37337	-1338.57678	681.56274	43.80351	-1270.53662	525.37665	48.66803	-1269.02063	522.01367	174.43407	-1212.07922	442.61996	33.28112	-1216.31763	397.99478	29.69911	-1273.39880	440.48361	42.53523	-1269.54224	396.13385	38.19970	-1193.53564	100.09763	96.05645	-1226.68591	105.50771	182.98059	-1137.49756	78.36725	168.54146	-1352.58130	44.87682	165.54544	-1367.99719	63.72638	110.83725	-1313.46069	44.81057	53.94693
